ffmpeg version N-73165-gf1e1730 Copyright (c) 2000-2015 the FFmpeg developers
  built with gcc 4.9.2 (GCC)
  configuration: --enable-gpl --enable-version3 --disable-w32threads --enable-avisynth --enable-bzlib --enable-fontconfig --enable-frei0r --enable-gnutls --enable-iconv --enable-libass --enable-libbluray --enable-libbs2b --enable-libcaca --enable-libdcadec --enable-libfreetype --enable-libgme --enable-libgsm --enable-libilbc --enable-libmodplug --enable-libmp3lame --enable-libopencore-amrnb --enable-libopencore-amrwb --enable-libopenjpeg --enable-libopus --enable-librtmp --enable-libschroedinger --enable-libsoxr --enable-libspeex --enable-libtheora --enable-libtwolame --enable-libvidstab --enable-libvo-aacenc --enable-libvo-amrwbenc --enable-libvorbis --enable-libvpx --enable-libwavpack --enable-libwebp --enable-libx264 --enable-libx265 --enable-libxavs --enable-libxvid --enable-lzma --enable-decklink --enable-zlib
  libavutil      54. 27.100 / 54. 27.100
  libavcodec     56. 45.100 / 56. 45.100
  libavformat    56. 38.102 / 56. 38.102
  libavdevice    56.  4.100 / 56.  4.100
  libavfilter     5. 18.100 /  5. 18.100
  libswscale      3.  1.101 /  3.  1.101
  libswresample   1.  2.100 /  1.  2.100
  libpostproc    53.  3.100 / 53.  3.100
Input #0, rawvideo, from 'pipe:':
  Duration: N/A, start: 0.000000, bitrate: 165888 kb/s
    Stream #0:0: Video: rawvideo (RGB[24] / 0x18424752), rgb24, 640x360, 165888 kb/s, 30 tbr, 30 tbn, 30 tbc
[libx264 @ 0000000002f8bfe0] using cpu capabilities: MMX2 SSE2Fast SSSE3 SSE4.2 AVX FMA3 AVX2 LZCNT BMI2
[libx264 @ 0000000002f8bfe0] profile High, level 3.0
[libx264 @ 0000000002f8bfe0] 264 - core 146 r2538 121396c - H.264/MPEG-4 AVC codec - Copyleft 2003-2015 - http://www.videolan.org/x264.html - options: cabac=1 ref=3 deblock=1:0:0 analyse=0x3:0x113 me=hex subme=7 psy=1 psy_rd=1.00:0.00 mixed_ref=1 me_range=16 chroma_me=1 trellis=1 8x8dct=1 cqm=0 deadzone=21,11 fast_pskip=1 chroma_qp_offset=-2 threads=12 lookahead_threads=2 sliced_threads=0 nr=0 decimate=1 interlaced=0 bluray_compat=0 constrained_intra=0 bframes=3 b_pyramid=2 b_adapt=1 b_bias=0 direct=1 weightb=1 open_gop=0 weightp=2 keyint=250 keyint_min=25 scenecut=40 intra_refresh=0 rc_lookahead=40 rc=crf mbtree=1 crf=15.0 qcomp=0.60 qpmin=0 qpmax=69 qpstep=4 ip_ratio=1.40 aq=1:1.00
Output #0, mp4, to 'C:\Users\Jonghwa\Documents\GitHub\2015RnE\ARDroneForRnE_For_Success\20151020204724.mp4':
  Metadata:
    comment         : Exported using VideoExport for Processing - https://github.com/hamoid/VideoExport-for-Processing
    encoder         : Lavf56.38.102
    Stream #0:0: Video: h264 (libx264) ([33][0][0][0] / 0x0021), yuv420p, 640x360, q=-1--1, 30 fps, 15360 tbn, 30 tbc
    Metadata:
      encoder         : Lavc56.45.100 libx264
Stream mapping:
  Stream #0:0 -> #0:0 (rawvideo (native) -> h264 (libx264))
frame=   12 fps=0.0 q=0.0 size=       0kB time=00:00:00.00 bitrate=N/A    frame=   17 fps=9.5 q=0.0 size=       0kB time=00:00:00.00 bitrate=N/A    frame=   28 fps= 12 q=0.0 size=       0kB time=00:00:00.00 bitrate=N/A    frame=   38 fps= 13 q=0.0 size=       0kB time=00:00:00.00 bitrate=N/A    frame=   49 fps= 15 q=0.0 size=       0kB time=00:00:00.00 bitrate=N/A    frame=   60 fps= 15 q=21.0 size=      48kB time=00:00:00.06 bitrate=5908.4kbits/s    frame=   72 fps= 16 q=21.0 size=     164kB time=00:00:00.46 bitrate=2875.5kbits/s    frame=   84 fps= 17 q=21.0 size=     291kB time=00:00:00.86 bitrate=2752.3kbits/s    frame=   96 fps= 18 q=21.0 size=     426kB time=00:00:01.26 bitrate=2758.2kbits/s    frame=  109 fps= 18 q=21.0 size=     549kB time=00:00:01.70 bitrate=2643.9kbits/s    frame=  122 fps= 19 q=21.0 size=     660kB time=00:00:02.13 bitrate=2535.4kbits/s    frame=  135 fps= 19 q=21.0 size=     770kB time=00:00:02.56 bitrate=2457.4kbits/s    frame=  148 fps= 20 q=21.0 size=     880kB time=00:00:03.00 bitrate=2403.5kbits/s    frame=  161 fps= 20 q=21.0 size=    1008kB time=00:00:03.43 bitrate=2404.8kbits/s    frame=  173 fps= 20 q=21.0 size=    1122kB time=00:00:03.83 bitrate=2398.8kbits/s    frame=  185 fps= 20 q=21.0 size=    1239kB time=00:00:04.23 bitrate=2398.0kbits/s    frame=  193 fps= 20 q=21.0 size=    1317kB time=00:00:04.50 bitrate=2398.2kbits/s    frame=  205 fps= 20 q=21.0 size=    1428kB time=00:00:04.90 bitrate=2387.5kbits/s    frame=  218 fps= 21 q=21.0 size=    1537kB time=00:00:05.33 bitrate=2360.2kbits/s    frame=  231 fps= 21 q=21.0 size=    1665kB time=00:00:05.76 bitrate=2365.5kbits/s    frame=  243 fps= 21 q=21.0 size=    1776kB time=00:00:06.16 bitrate=2359.6kbits/s    frame=  257 fps= 21 q=21.0 size=    1936kB time=00:00:06.63 bitrate=2391.0kbits/s    frame=  270 fps= 21 q=21.0 size=    2052kB time=00:00:07.06 bitrate=2378.9kbits/s    frame=  283 fps= 21 q=21.0 size=    2165kB time=00:00:07.50 bitrate=2364.5kbits/s    frame=  296 fps= 22 q=21.0 size=    2292kB time=00:00:07.93 bitrate=2367.1kbits/s    frame=  309 fps= 22 q=21.0 size=    2423kB time=00:00:08.36 bitrate=2372.0kbits/s    frame=  321 fps= 22 q=21.0 size=    2504kB time=00:00:08.76 bitrate=2340.2kbits/s    frame=  334 fps= 22 q=21.0 size=    2620kB time=00:00:09.20 bitrate=2333.0kbits/s    frame=  348 fps= 22 q=21.0 size=    2767kB time=00:00:09.66 bitrate=2344.8kbits/s    frame=  360 fps= 22 q=21.0 size=    2872kB time=00:00:10.06 bitrate=2337.5kbits/s    frame=  369 fps= 22 q=21.0 size=    2940kB time=00:00:10.36 bitrate=2323.4kbits/s    frame=  381 fps= 22 q=21.0 size=    3042kB time=00:00:10.76 bitrate=2314.5kbits/s    frame=  394 fps= 22 q=21.0 size=    3161kB time=00:00:11.20 bitrate=2312.2kbits/s    frame=  406 fps= 22 q=21.0 size=    3256kB time=00:00:11.60 bitrate=2299.2kbits/s    frame=  419 fps= 22 q=21.0 size=    3379kB time=00:00:12.03 bitrate=2300.0kbits/s    frame=  432 fps= 22 q=21.0 size=    3494kB time=00:00:12.46 bitrate=2296.2kbits/s    frame=  445 fps= 22 q=21.0 size=    3637kB time=00:00:12.90 bitrate=2309.6kbits/s    frame=  458 fps= 22 q=21.0 size=    3740kB time=00:00:13.33 bitrate=2298.0kbits/s    frame=  471 fps= 22 q=21.0 size=    3864kB time=00:00:13.76 bitrate=2299.4kbits/s    frame=  483 fps= 22 q=21.0 size=    3968kB time=00:00:14.16 bitrate=2294.7kbits/s    frame=  497 fps= 22 q=21.0 size=    4087kB time=00:00:14.63 bitrate=2288.0kbits/s    frame=  509 fps= 22 q=21.0 size=    4227kB time=00:00:15.03 bitrate=2303.5kbits/s    frame=  521 fps= 22 q=21.0 size=    4334kB time=00:00:15.43 bitrate=2300.7kbits/s    frame=  533 fps= 22 q=21.0 size=    4459kB time=00:00:15.83 bitrate=2306.9kbits/s    frame=  546 fps= 22 q=21.0 size=    4561kB time=00:00:16.26 bitrate=2297.1kbits/s    frame=  559 fps= 22 q=21.0 size=    4680kB time=00:00:16.70 bitrate=2295.6kbits/s    frame=  570 fps= 22 q=21.0 size=    4778kB time=00:00:17.06 bitrate=2293.4kbits/s    frame=  582 fps= 22 q=21.0 size=    4883kB time=00:00:17.46 bitrate=2290.4kbits/s    frame=  597 fps= 22 q=21.0 size=    5019kB time=00:00:17.96 bitrate=2288.3kbits/s    frame=  603 fps= 19 q=21.0 size=    5078kB time=00:00:18.16 bitrate=2290.1kbits/s    frame=  616 fps= 19 q=21.0 size=    5196kB time=00:00:18.60 bitrate=2288.5kbits/s    frame=  625 fps= 18 q=21.0 size=    5293kB time=00:00:18.90 bitrate=2294.1kbits/s    frame=  635 fps= 18 q=21.0 size=    5398kB time=00:00:19.23 bitrate=2299.1kbits/s    frame=  648 fps= 19 q=21.0 size=    5534kB time=00:00:19.66 bitrate=2305.1kbits/s    frame=  661 fps= 19 q=21.0 size=    5675kB time=00:00:20.10 bitrate=2312.9kbits/s    frame=  672 fps= 19 q=21.0 size=    5834kB time=00:00:20.46 bitrate=2335.0kbits/s    frame=  685 fps= 19 q=21.0 size=    5998kB time=00:00:20.90 bitrate=2350.9kbits/s    frame=  696 fps= 19 q=21.0 size=    6141kB time=00:00:21.26 bitrate=2365.6kbits/s    frame=  710 fps= 19 q=21.0 size=    6311kB time=00:00:21.73 bitrate=2378.8kbits/s    frame=  722 fps= 19 q=21.0 size=    6467kB time=00:00:22.13 bitrate=2393.7kbits/s    frame=  735 fps= 19 q=21.0 size=    6642kB time=00:00:22.56 bitrate=2411.0kbits/s    frame=  746 fps= 19 q=21.0 size=    6799kB time=00:00:22.93 bitrate=2428.7kbits/s    frame=  759 fps= 19 q=21.0 size=    6944kB time=00:00:23.36 bitrate=2434.5kbits/s    frame=  772 fps= 19 q=21.0 size=    7100kB time=00:00:23.80 bitrate=2443.9kbits/s    frame=  784 fps= 19 q=21.0 size=    7262kB time=00:00:24.20 bitrate=2458.3kbits/s    frame=  797 fps= 19 q=21.0 size=    7412kB time=00:00:24.63 bitrate=2465.0kbits/s    frame=  811 fps= 19 q=21.0 size=    7573kB time=00:00:25.10 bitrate=2471.5kbits/s    frame=  823 fps= 19 q=21.0 size=    7704kB time=00:00:25.50 bitrate=2475.0kbits/s    frame=  835 fps= 20 q=21.0 size=    7839kB time=00:00:25.90 bitrate=2479.3kbits/s    frame=  846 fps= 20 q=21.0 size=    7951kB time=00:00:26.26 bitrate=2479.8kbits/s    frame=  858 fps= 20 q=21.0 size=    8112kB time=00:00:26.66 bitrate=2492.0kbits/s    frame=  871 fps= 20 q=21.0 size=    8257kB time=00:00:27.10 bitrate=2496.0kbits/s    frame=  886 fps= 20 q=21.0 size=    8446kB time=00:00:27.60 bitrate=2506.9kbits/s    frame=  899 fps= 20 q=21.0 size=    8594kB time=00:00:28.03 bitrate=2511.3kbits/s    frame=  913 fps= 20 q=21.0 size=    8785kB time=00:00:28.50 bitrate=2525.2kbits/s    frame=  927 fps= 20 q=21.0 size=    8942kB time=00:00:28.96 bitrate=2528.8kbits/s    frame=  941 fps= 20 q=21.0 size=    9059kB time=00:00:29.43 bitrate=2521.3kbits/s    frame=  954 fps= 20 q=21.0 size=    9188kB time=00:00:29.86 bitrate=2520.0kbits/s    frame=  966 fps= 20 q=21.0 size=    9306kB time=00:00:30.26 bitrate=2518.6kbits/s    frame=  978 fps= 20 q=21.0 size=    9429kB time=00:00:30.66 bitrate=2518.7kbits/s    frame=  990 fps= 20 q=21.0 size=    9536kB time=00:00:31.06 bitrate=2514.6kbits/s    frame= 1002 fps= 20 q=21.0 size=    9652kB time=00:00:31.46 bitrate=2512.8kbits/s    frame= 1013 fps= 20 q=21.0 size=    9770kB time=00:00:31.83 bitrate=2514.2kbits/s    frame= 1026 fps= 20 q=21.0 size=    9899kB time=00:00:32.26 bitrate=2513.2kbits/s    frame= 1039 fps= 20 q=21.0 size=   10036kB time=00:00:32.70 bitrate=2514.3kbits/s    frame= 1050 fps= 20 q=21.0 size=   10140kB time=00:00:33.06 bitrate=2512.0kbits/s    frame= 1061 fps= 20 q=21.0 size=   10231kB time=00:00:33.43 bitrate=2506.9kbits/s    frame= 1073 fps= 20 q=21.0 size=   10345kB time=00:00:33.83 bitrate=2504.7kbits/s    frame= 1084 fps= 20 q=21.0 size=   10444kB time=00:00:34.20 bitrate=2501.7kbits/s    frame= 1095 fps= 20 q=21.0 size=   10570kB time=00:00:34.56 bitrate=2504.9kbits/s    frame= 1106 fps= 20 q=21.0 size=   10675kB time=00:00:34.93 bitrate=2503.3kbits/s    frame= 1119 fps= 20 q=21.0 size=   10797kB time=00:00:35.36 bitrate=2500.9kbits/s    frame= 1133 fps= 20 q=21.0 size=   10937kB time=00:00:35.83 bitrate=2500.3kbits/s    frame= 1145 fps= 21 q=21.0 size=   11043kB time=00:00:36.23 bitrate=2496.7kbits/s    frame= 1159 fps= 21 q=21.0 size=   11203kB time=00:00:36.70 bitrate=2500.6kbits/s    frame= 1172 fps= 21 q=21.0 size=   11312kB time=00:00:37.13 bitrate=2495.5kbits/s    frame= 1186 fps= 21 q=21.0 size=   11453kB time=00:00:37.60 bitrate=2495.3kbits/s    frame= 1199 fps= 21 q=21.0 size=   11580kB time=00:00:38.03 bitrate=2494.3kbits/s    frame= 1212 fps= 21 q=21.0 size=   11700kB time=00:00:38.46 bitrate=2491.6kbits/s    frame= 1227 fps= 21 q=21.0 size=   11841kB time=00:00:38.96 bitrate=2489.3kbits/s    frame= 1241 fps= 21 q=21.0 size=   11970kB time=00:00:39.43 bitrate=2486.8kbits/s    frame= 1255 fps= 21 q=21.0 size=   12098kB time=00:00:39.90 bitrate=2483.9kbits/s    frame= 1269 fps= 21 q=21.0 size=   12230kB time=00:00:40.36 bitrate=2481.9kbits/s    frame= 1280 fps= 21 q=21.0 size=   12316kB time=00:00:40.73 bitrate=2477.0kbits/s    frame= 1294 fps= 21 q=21.0 size=   12450kB time=00:00:41.20 bitrate=2475.5kbits/s    frame= 1306 fps= 21 q=21.0 size=   12569kB time=00:00:41.60 bitrate=2475.1kbits/s    frame= 1320 fps= 21 q=21.0 size=   12697kB time=00:00:42.06 bitrate=2472.6kbits/s    frame= 1334 fps= 21 q=21.0 size=   12851kB time=00:00:42.53 bitrate=2475.2kbits/s    frame= 1347 fps= 21 q=21.0 size=   12971kB time=00:00:42.96 bitrate=2473.1kbits/s    frame= 1358 fps= 21 q=21.0 size=   13090kB time=00:00:43.33 bitrate=2474.6kbits/s    frame= 1371 fps= 21 q=21.0 size=   13212kB time=00:00:43.76 bitrate=2472.9kbits/s    frame= 1383 fps= 21 q=21.0 size=   13331kB time=00:00:44.16 bitrate=2472.6kbits/s    frame= 1396 fps= 21 q=21.0 size=   13466kB time=00:00:44.60 bitrate=2473.3kbits/s    frame= 1410 fps= 21 q=21.0 size=   13623kB time=00:00:45.06 bitrate=2476.4kbits/s    frame= 1423 fps= 21 q=21.0 size=   13765kB time=00:00:45.50 bitrate=2478.3kbits/s    frame= 1438 fps= 21 q=21.0 size=   13906kB time=00:00:46.00 bitrate=2476.4kbits/s    frame= 1451 fps= 21 q=21.0 size=   14017kB time=00:00:46.43 bitrate=2472.9kbits/s    frame= 1466 fps= 21 q=21.0 size=   14146kB time=00:00:46.93 bitrate=2469.2kbits/s    frame= 1469 fps= 21 q=21.0 size=   14166kB time=00:00:47.03 bitrate=2467.3kbits/s    